PathFileType	4	(X/Y/Z)	AB08\squats_1.trc
DataRate	CameraRate	NumFrames	NumMarkers	Units	OrigDataRate	OrigDataStartFrame	OrigNumFrames
200.000000	200.000000	6	35	mm	200.000000	198	317
Frame#	Time	C7			LSHO			STRN			LASI			RASI			RPSI			LGTR			RGTR			LTHC			LTHL			LTHR			LKNE			LMKNE			LSHC			LSHL			LSHR			LANK			LMANK			LMT1			LMT5			LCAL			RTHC			RTHL			RTHR			RKNE			RMKNE			RSHC			RSHL			RSHR			RANK			RMANK			RMT1			RMT5			RCAL			LPSI			
		X1	Y1	Z1	X2	Y2	Z2	X3	Y3	Z3	X4	Y4	Z4	X5	Y5	Z5	X6	Y6	Z6	X7	Y7	Z7	X8	Y8	Z8	X9	Y9	Z9	X10	Y10	Z10	X11	Y11	Z11	X12	Y12	Z12	X13	Y13	Z13	X14	Y14	Z14	X15	Y15	Z15	X16	Y16	Z16	X17	Y17	Z17	X18	Y18	Z18	X19	Y19	Z19	X20	Y20	Z20	X21	Y21	Z21	X22	Y22	Z22	X23	Y23	Z23	X24	Y24	Z24	X25	Y25	Z25	X26	Y26	Z26	X27	Y27	Z27	X28	Y28	Z28	X29	Y29	Z29	X30	Y30	Z30	X31	Y31	Z31	X32	Y32	Z32	X33	Y33	Z33	X34	Y34	Z34	X35	Y35	Z35	

199	31.27	-3568.413013651546	1061.304600594978	2533.997231905639	-3651.436343563365	977.6050514427757	2674.582581134513	-3592.096141592378	724.7260085316103	2541.692322122065	-3373.199491844075	652.6281291307233	2634.644817170747	-3375.87757657563	665.7825152092184	2400.847524982768	-3166.890780174363	710.9718412686573	2449.224918985919	-3241.933074525885	673.4151833934358	2720.852616753369	-3301.125538551728	647.8002938593727	2314.712423084384	-3443.377444549979	618.792502313716	2714.791259529439	-3361.006246602563	452.7039104472736	2744.611122950526	-3483.367679380067	488.8264199606244	2798.255962720198	-3534.303754306324	424.6653388900759	2801.671157933253	-3591.433835304969	390.7503353905383	2702.301573649403	-3453.193411846131	394.3149262192527	2744.803898841238	-3544.230617647894	300.4200619283801	2705.750326351439	-3420.943196992519	231.7896881139667	2788.435311043315	-3357.636620369245	97.54256014941191	2756.422243200909	-3402.822317813665	104.8207136054863	2668.12181427872	-3509.2667924298	53.27590791561772	2716.740772868945	-3468.099991984719	50.09692658958958	2810.938083992831	-3299.681238557316	87.28225565061862	2688.450052454396	-3477.577637505328	497.3386170946192	2279.023514602936	-3352.84123427586	429.3296421195923	2327.238222768576	-3482.900519300692	577.9569075839327	2428.373429515406	-3608.360635975192	421.3411778904281	2279.659513616222	-3620.596197124368	388.4140642088246	2397.444710987342	-3456.340379334074	244.7214308948437	2262.881277353958	-3461.606722137209	358.0972837427904	2331.065534244945	-3591.863932431324	278.6170746210863	2327.12337629226	-3379.397981905051	105.6216386601023	2275.612961142762	-3426.134022573648	103.0091170399468	2364.947758873444	-3534.963671984053	55.81015271731015	2304.65532005007	-3481.775941727994	54.50656836024713	2225.026916485704	-3311.483125622896	93.68465807918516	2337.00969491653	-3156.960362088236	718.6377129900819	2557.839582753241	
200	31.275	-3567.697590756391	1064.062870758249	2534.18437855311	-3650.860560423771	980.5426800716843	2674.748785303943	-3592.104475864535	727.5868762130101	2541.865229717909	-3373.404298924933	654.2410025353084	2634.618235628303	-3376.423299090591	667.5267580764865	2400.972466680685	-3167.068207918478	713.1066328747462	2449.369476423215	-3242.282989280595	675.2038818062855	2720.991249538376	-3302.06224911261	649.4821682517445	2314.485763458933	-3443.930867056235	619.7454826373365	2714.813766202808	-3360.962694437106	453.8377241588202	2744.363492522508	-3483.490925143145	489.3311765300109	2797.911982424892	-3534.208946967659	424.8573499401816	2801.261713593563	-3591.148739111833	390.8449626343339	2701.879409769225	-3453.09332123859	394.3381854653727	2744.56450650787	-3544.07500804648	300.4963962608238	2705.467650651157	-3420.905191422525	231.8575150107027	2788.352969652334	-3357.614786167397	97.57581300545935	2756.5138288936	-3402.704384631621	104.7529012161962	2668.15552034729	-3509.266218661712	53.29367407965702	2716.744788450711	-3468.106328625945	50.09816341216199	2810.969682497963	-3299.594290055044	87.23805030996766	2688.547886303013	-3477.677868863815	498.2172789153022	2279.421320474035	-3352.639820941976	430.7639133992379	2327.483021126669	-3483.191289108126	579.0501078862967	2428.578956598601	-3608.090724271357	421.5989990700338	2280.290266959893	-3620.052084998086	388.5845094561005	2398.079568634139	-3456.185732944305	244.7822393383134	2263.039772758933	-3461.211600183226	358.1144271064929	2331.30065359429	-3591.571774176188	278.7709149295067	2327.561135032465	-3379.325602429106	105.6397579114687	2275.486041117319	-3426.004111289461	102.9905982935823	2364.878356376266	-3534.920210494673	55.8287136283441	2304.663265962505	-3481.787920490309	54.49935744751043	2225.005598274526	-3311.328078513086	93.60120542079481	2336.837306879006	-3157.198725344583	720.7492322553861	2558.034835086109	
201	31.28	-3566.966761197356	1066.888992604627	2534.370275273221	-3650.26779390117	983.5555557706568	2674.914857374554	-3592.113539824029	730.5137279523843	2542.040599170342	-3373.61110654507	655.8935119374172	2634.589575179366	-3376.969952619295	669.3021371772959	2401.100360334097	-3167.250063552911	715.290745617599	2449.515056585576	-3242.638366097816	677.0350208535612	2721.130239604154	-3302.997246937277	651.2006661678927	2314.269017823131	-3444.494605579	620.7195189154717	2714.837362407045	-3360.917162338732	454.9978212641709	2744.104714952493	-3483.609964099089	489.8456660725294	2797.554326422995	-3534.106084050989	425.0555086479767	2800.838747366336	-3590.853361805704	390.9426675976282	2701.442602453483	-3452.982716706079	394.3632156645806	2744.308427236503	-3543.90908214222	300.5744437892272	2705.175911950124	-3420.862722392623	231.9249422122014	2788.268361257664	-3357.590185869557	97.60325162078034	2756.606682357331	-3402.582811036903	104.6865957325036	2668.193039761138	-3509.264903004763	53.31219789809459	2716.748858321347	-3468.113346242145	50.09582701558612	2811.001200884925	-3299.50365597379	87.18909569958926	2688.650256429256	-3477.774160807131	499.1176044430704	2279.824467759109	-3352.434623297133	432.2310039591239	2327.741288139822	-3483.492347826132	580.1657708931834	2428.782065349656	-3607.806674800726	421.8655124429333	2280.921026873644	-3619.493702556928	388.7620995678808	2398.713741058449	-3456.024391162275	244.8415706119044	2263.194154023256	-3460.802172027599	358.1301043675954	2331.528726751319	-3591.268530232351	278.9295472838181	2327.999343205903	-3379.254240895483	105.6581733379567	2275.353275981561	-3425.872667384381	102.971400752734	2364.804604361503	-3534.872973105051	55.84663805317086	2304.670719282688	-3481.798588584252	54.49252877704949	2224.981662738881	-3311.169344744966	93.51472162483036	2336.658996044499	-3157.43948308887	722.9110038499555	2558.232098932706	
202	31.285	-3566.220708596729	1069.781949526727	2534.55458674547	-3649.658042209278	986.642373663267	2675.080603122186	-3592.121516515312	733.5056823446074	2542.217658183221	-3373.820301658353	657.5853559473992	2634.559010198862	-3377.515043443662	671.1071506792696	2401.230510596861	-3167.436553334006	717.5228691907712	2449.661678661681	-3242.999449622787	678.9079176182355	2721.269692323087	-3303.925384469069	652.9555354036474	2314.063637051256	-3445.068940182532	621.7134045551721	2714.861503003124	-3360.870004205397	456.1838257981723	2743.835040546655	-3483.724985583433	490.369576618671	2797.182706301561	-3533.99528564379	425.2598169209152	2800.40201129533	-3590.54799039351	391.0434186725578	2700.990642092433	-3452.860790641977	394.3906392691806	2744.035468858975	-3543.732601758607	300.6539852988275	2704.875121818462	-3420.815786896977	231.9919613780506	2788.181332103467	-3357.562676515996	97.62453756709918	2756.700754177205	-3402.457891876837	104.6225070946011	2668.234463554145	-3509.262576031342	53.33121894817617	2716.752865863124	-3468.120920140295	50.08995984248179	2811.032739655467	-3299.409259318748	87.13534410647229	2688.757005021471	-3477.865765404327	500.0385463079435	2280.232776619924	-3352.225846478963	433.730129446524	2328.013154464233	-3483.802874194762	581.3031160098495	2428.983511856073	-3607.508298794773	422.1402314014919	2281.551382802097	-3618.920844680114	388.9473647974004	2399.346090480831	-3455.856776720024	244.8997034594398	2263.344156382019	-3460.378640041253	358.1444664670822	2331.749996125009	-3590.954238782041	279.0926821663448	2328.437504744507	-3379.183915736608	105.6762184041854	2275.215179020378	-3425.739080391524	102.9513489497351	2364.726766777899	-3534.821920405101	55.86369660218064	2304.677705818821	-3481.807636146966	54.48633893955696	2224.954884347814	-3311.007651075459	93.42523525200379	2336.475282459009	-3157.682847683687	725.1218325839434	2558.431346010609	
203	31.29	-3565.459604702517	1072.740826572016	2534.736904078951	-3649.031322786821	989.8018835778796	2675.245805477519	-3592.126457364475	736.5619715685021	2542.39557780731	-3374.032346931108	659.3163578670809	2634.526757605137	-3378.056062006469	672.9405644045233	2401.362176113265	-3167.62791454815	719.8018154428611	2449.809421350783	-3243.366524200959	680.8218945875996	2721.409754583589	-3304.841458101981	654.7468314638685	2313.870966086502	-3445.654141211954	622.7259506932455	2714.885754953246	-3360.8215105103	457.3954118503739	2743.55483478295	-3483.836176797587	490.9026600436715	2796.797033139025	-3533.876609461766	425.4702361764183	2799.951407629293	-3590.232845233592	391.147219428624	2700.523230346441	-3452.726745947137	394.4211011754153	2743.745725098494	-3543.545338822262	300.7348396131855	2704.565397624814	-3420.764326429878	232.0585549118032	2788.09178143665	-3357.532102424595	97.63942008880453	2756.796011195	-3402.329885845185	104.5612410675824	2668.279853451561	-3509.25896252733	53.35045455988476	2716.756695627833	-3468.128901680309	50.08067059859204	2811.064433872868	-3299.311040791318	87.07678999531483	2688.867915970744	-3477.95195055775	500.9791858813217	2280.645850138785	-3352.013649328988	435.2607001509314	2328.298500174223	-3484.121983651965	582.4614860259915	2429.184037750875	-3607.195297973551	422.4226753946874	2282.180811498076	-3618.333197162297	389.1410207939398	2399.975271219582	-3455.683258291646	244.9569682187291	2263.489477313195	-3459.941195729682	358.1577818290833	2331.96467019482	-3590.628909000091	279.2601030911278	2328.87500667324	-3379.114547466374	105.6931472643236	2275.072287342547	-3425.602691553026	102.9302807300389	2364.645087537862	-3534.76710162706	55.87969517175551	2304.684240286505	-3481.814772435683	54.48101706047015	2224.925068400001	-3310.843723542666	93.33280363900933	2336.286715876041	-3157.929095296899	727.3805569140915	2558.632582855202	
204	31.295	-3564.68361034101	1075.764819548317	2534.916750754266	-3648.387667033464	993.0329039299199	2675.410226147781	-3592.126309149158	739.6819433467382	2542.573493494428	-3374.247776638056	661.0864549174381	2634.49306872901	-3378.590545124317	674.8014199570819	2401.494586740704	-3167.824416440551	722.1265198413879	2449.958416663192	-3243.739910663578	682.776268242233	2721.550604295242	-3305.740329672661	656.5748950720858	2313.692221357805	-3446.250457591611	623.7560017316192	2714.909824956787	-3360.771909853873	458.6322999844066	2743.264574007824	-3483.943715158881	491.4447302774374	2796.397428502267	-3533.750049506281	425.6866911589681	2799.487007156037	-3589.908081425815	391.2541100306469	2700.040299174304	-3452.579820840762	394.4552472831762	2743.43956774763	-3543.347079571959	300.816863591726	2704.246965456646	-3420.708226180192	232.1246959715693	2787.999672888376	-3357.498300294983	97.64773590124211	2756.892433733678	-3402.199017145922	104.5032882842359	2668.329236536657	-3509.253786445705	53.36960719214358	2716.76023638792	-3468.137124331402	50.06812848881727	2811.096446890795	-3299.208962549808	87.0134717296945	2688.982725153106	-3478.032016347177	501.9387328612407	2281.063079857136	-3351.798161517008	436.8223165796716	2328.596967691151	-3484.448769985815	583.6403542414311	2429.384334628811	-3606.867276157323	422.712377626377	2282.808670354927	-3617.73034948106	389.3439594586283	2400.59973759106	-3455.504138806203	245.0137348512474	2263.629785850733	-3459.490024592214	358.1704260483947	2332.17291316879	-3590.292526056364	279.4316733876919	2329.311125021351	-3379.04596595539	105.7081557664476	2274.925146449008	-3425.462830136354	102.9080552485011	2364.55979104144	-3534.708654617944	55.8944822840763	2304.690326193776	-3481.819736893407	54.47675942583469	2224.892061804868	-3310.678272999559	93.23751097225905	2336.093866760522	-3158.17856358798	729.6860470857034	2558.835849666291	
